<?xml version="1.0" encoding="utf-8" standalone="no"?>
<!DOCTYPE svg PUBLIC "-//W3C//DTD SVG 1.1//EN"
  "http://www.w3.org/Graphics/SVG/1.1/DTD/svg11.dtd">
<!-- Created with matplotlib (https://matplotlib.org/) -->
<svg height="432pt" version="1.1" viewBox="0 0 720 432" width="720pt" xmlns="http://www.w3.org/2000/svg" xmlns:xlink="http://www.w3.org/1999/xlink">
 <metadata>
  <rdf:RDF xmlns:cc="http://creativecommons.org/ns#" xmlns:dc="http://purl.org/dc/elements/1.1/" xmlns:rdf="http://www.w3.org/1999/02/22-rdf-syntax-ns#">
   <cc:Work>
    <dc:type rdf:resource="http://purl.org/dc/dcmitype/StillImage"/>
    <dc:date>2022-01-28T11:50:55.991536</dc:date>
    <dc:format>image/svg+xml</dc:format>
    <dc:creator>
     <cc:Agent>
      <dc:title>Matplotlib v3.3.4, https://matplotlib.org/</dc:title>
     </cc:Agent>
    </dc:creator>
   </cc:Work>
  </rdf:RDF>
 </metadata>
 <defs>
  <style type="text/css">*{stroke-linecap:butt;stroke-linejoin:round;}</style>
 </defs>
 <g id="figure_1">
  <g id="patch_1">
   <path d="M 0 432 
L 720 432 
L 720 0 
L 0 0 
z
" style="fill:#ffffff;"/>
  </g>
  <g id="axes_1">
   <g id="patch_2">
    <path d="M 90 378 
L 648 378 
L 648 51.84 
L 90 51.84 
z
" style="fill:#eaeaf2;"/>
   </g>
   <g id="matplotlib.axis_1">
    <g id="xtick_1">
     <g id="line2d_1">
      <path clip-path="url(#p4997a5f717)" d="M 151.597403 378 
L 151.597403 51.84 
" style="fill:none;stroke:#ffffff;stroke-linecap:round;"/>
     </g>
     <g id="text_1">
      <!-- 8.4 -->
      <g style="fill:#262626;" transform="translate(143.347403 395.0625)scale(0.11 -0.11)">
       <defs>
        <path d="M 2.734375 16.796875 
Q 2.734375 26.171875 5.078125 30.65625 
Q 7.421875 35.15625 12.890625 37.890625 
Q 8.203125 40.625 6.640625 43.9375 
Q 5.078125 47.265625 4.875 51.5625 
Q 4.6875 55.859375 6.046875 58.984375 
Q 7.421875 62.109375 10.15625 64.84375 
Q 12.890625 67.578125 16.203125 68.546875 
Q 19.53125 69.53125 23.4375 69.53125 
Q 27.34375 69.53125 30.46875 68.75 
Q 33.59375 67.96875 37.109375 65.421875 
Q 40.625 62.890625 42.1875 58.203125 
Q 43.75 53.515625 41.984375 47.265625 
Q 40.234375 41.015625 32.8125 37.5 
Q 39.453125 35.546875 42.1875 31.4375 
Q 44.921875 27.34375 44.921875 21.484375 
Q 44.921875 15.625 43.15625 12.109375 
Q 41.40625 8.59375 39.25 6.25 
Q 37.109375 3.90625 33.390625 2.53125 
Q 29.6875 1.171875 24.015625 1.171875 
Q 18.359375 1.171875 14.25 2.53125 
Q 10.15625 3.90625 7.421875 6.640625 
Q 4.6875 9.375 3.703125 13.078125 
Q 2.734375 16.796875 2.734375 26.171875 
z
M 10.9375 26.5625 
Q 10.546875 17.1875 12.296875 13.671875 
Q 14.0625 10.15625 18.75 9.171875 
Q 23.4375 8.203125 28.515625 9.375 
Q 33.59375 10.546875 35.546875 14.84375 
Q 37.5 19.140625 36.90625 23.4375 
Q 36.328125 27.734375 32.03125 30.65625 
Q 27.734375 33.59375 22.65625 33.203125 
Q 17.578125 32.8125 14.25 29.6875 
Q 10.9375 26.5625 10.546875 17.1875 
z
M 12.109375 56.25 
Q 12.109375 48.4375 14.84375 44.921875 
Q 17.578125 41.40625 23.4375 41.40625 
Q 29.296875 41.40625 32.21875 44.921875 
Q 35.15625 48.4375 34.953125 53.3125 
Q 34.765625 58.203125 31.4375 60.546875 
Q 28.125 62.890625 22.453125 62.5 
Q 16.796875 62.109375 14.453125 59.171875 
Q 12.109375 56.25 12.109375 48.4375 
z
" id="SimHei-56"/>
        <path d="M 16.796875 1.953125 
L 7.8125 1.953125 
L 7.8125 10.546875 
L 16.796875 10.546875 
z
" id="SimHei-46"/>
        <path d="M 31.25 17.1875 
L 1.171875 17.1875 
L 1.171875 23.828125 
L 32.8125 69.53125 
L 38.671875 69.53125 
L 38.671875 23.828125 
L 48.046875 23.828125 
L 48.046875 17.1875 
L 38.671875 17.1875 
L 38.671875 2.34375 
L 31.25 2.34375 
z
M 31.25 23.828125 
L 31.25 54.6875 
L 9.375 23.828125 
z
" id="SimHei-52"/>
       </defs>
       <use xlink:href="#SimHei-56"/>
       <use x="50" xlink:href="#SimHei-46"/>
       <use x="100" xlink:href="#SimHei-52"/>
      </g>
     </g>
    </g>
    <g id="xtick_2">
     <g id="line2d_2">
      <path clip-path="url(#p4997a5f717)" d="M 224.064935 378 
L 224.064935 51.84 
" style="fill:none;stroke:#ffffff;stroke-linecap:round;"/>
     </g>
     <g id="text_2">
      <!-- 8.6 -->
      <g style="fill:#262626;" transform="translate(215.814935 395.0625)scale(0.11 -0.11)">
       <defs>
        <path d="M 3.515625 19.53125 
Q 4.296875 30.859375 6.046875 34.765625 
Q 7.8125 38.671875 11.328125 44.53125 
L 27.34375 69.53125 
L 36.328125 69.53125 
L 19.921875 43.75 
Q 30.46875 46.484375 36.71875 42.96875 
Q 42.96875 39.453125 45.109375 34.953125 
Q 47.265625 30.46875 47.453125 25.1875 
Q 47.65625 19.921875 45.890625 14.84375 
Q 44.140625 9.765625 39.640625 5.65625 
Q 35.15625 1.5625 27.140625 1.171875 
Q 19.140625 0.78125 13.46875 4.09375 
Q 7.8125 7.421875 5.65625 13.46875 
Q 3.515625 19.53125 4.296875 30.859375 
z
M 12.5 16.015625 
Q 19.53125 8.59375 25.390625 8.203125 
Q 31.25 7.8125 35.15625 12.109375 
Q 39.0625 16.40625 39.0625 24.609375 
Q 39.0625 32.8125 34.171875 35.9375 
Q 29.296875 39.0625 23.234375 38.28125 
Q 17.1875 37.5 14.453125 32.421875 
Q 11.71875 27.34375 12.109375 21.671875 
Q 12.5 16.015625 19.53125 8.59375 
z
" id="SimHei-54"/>
       </defs>
       <use xlink:href="#SimHei-56"/>
       <use x="50" xlink:href="#SimHei-46"/>
       <use x="100" xlink:href="#SimHei-54"/>
      </g>
     </g>
    </g>
    <g id="xtick_3">
     <g id="line2d_3">
      <path clip-path="url(#p4997a5f717)" d="M 296.532468 378 
L 296.532468 51.84 
" style="fill:none;stroke:#ffffff;stroke-linecap:round;"/>
     </g>
     <g id="text_3">
      <!-- 8.8 -->
      <g style="fill:#262626;" transform="translate(288.282468 395.0625)scale(0.11 -0.11)">
       <use xlink:href="#SimHei-56"/>
       <use x="50" xlink:href="#SimHei-46"/>
       <use x="100" xlink:href="#SimHei-56"/>
      </g>
     </g>
    </g>
    <g id="xtick_4">
     <g id="line2d_4">
      <path clip-path="url(#p4997a5f717)" d="M 369 378 
L 369 51.84 
" style="fill:none;stroke:#ffffff;stroke-linecap:round;"/>
     </g>
     <g id="text_4">
      <!-- 9.0 -->
      <g style="fill:#262626;" transform="translate(360.75 395.0625)scale(0.11 -0.11)">
       <defs>
        <path d="M 12.5 1.171875 
Q 21.09375 15.625 26.5625 27.34375 
Q 16.796875 25.78125 10.34375 29.875 
Q 3.90625 33.984375 2.53125 41.015625 
Q 1.171875 48.046875 2.734375 53.703125 
Q 4.296875 59.375 7.609375 63.078125 
Q 10.9375 66.796875 15.625 68.359375 
Q 20.3125 69.921875 24.015625 69.921875 
Q 27.734375 69.921875 31.640625 68.359375 
Q 35.546875 66.796875 38.671875 63.671875 
Q 41.796875 60.546875 42.96875 57.21875 
Q 44.140625 53.90625 44.140625 48.625 
Q 44.140625 43.359375 40.234375 35.15625 
Q 36.328125 26.953125 21.09375 1.171875 
z
M 9.765625 50 
Q 10.9375 39.84375 14.640625 36.515625 
Q 18.359375 33.203125 22.65625 33.59375 
Q 26.953125 33.984375 29.484375 35.9375 
Q 32.03125 37.890625 34.375 42.578125 
Q 35.9375 48.4375 35.15625 52.53125 
Q 34.375 56.640625 31.046875 59.375 
Q 27.734375 62.109375 23.828125 62.109375 
Q 21.484375 62.5 17.765625 60.9375 
Q 14.0625 59.375 11.90625 54.6875 
Q 9.765625 50 10.9375 39.84375 
z
" id="SimHei-57"/>
        <path d="M 3.125 29.296875 
Q 3.90625 50 6.4375 56.046875 
Q 8.984375 62.109375 13.671875 66.015625 
Q 18.359375 69.921875 25.1875 69.921875 
Q 32.03125 69.921875 37.109375 64.25 
Q 42.1875 58.59375 43.75 50 
Q 45.3125 41.40625 44.71875 30.265625 
Q 44.140625 19.140625 40.8125 12.109375 
Q 37.5 5.078125 30.859375 2.34375 
Q 24.21875 -0.390625 17.578125 2.921875 
Q 10.9375 6.25 8.203125 11.71875 
Q 5.46875 17.1875 4.296875 23.234375 
Q 3.125 29.296875 3.90625 50 
z
M 12.890625 52.734375 
Q 10.546875 31.25 12.5 22.84375 
Q 14.453125 14.453125 18.9375 10.9375 
Q 23.4375 7.421875 28.125 9.5625 
Q 32.8125 11.71875 34.953125 18.15625 
Q 37.109375 24.609375 37.109375 32.21875 
Q 37.109375 39.84375 36.515625 46.09375 
Q 35.9375 52.34375 33 57.421875 
Q 30.078125 62.5 25.1875 62.6875 
Q 20.3125 62.890625 16.59375 57.8125 
Q 12.890625 52.734375 10.546875 31.25 
z
" id="SimHei-48"/>
       </defs>
       <use xlink:href="#SimHei-57"/>
       <use x="50" xlink:href="#SimHei-46"/>
       <use x="100" xlink:href="#SimHei-48"/>
      </g>
     </g>
    </g>
    <g id="xtick_5">
     <g id="line2d_5">
      <path clip-path="url(#p4997a5f717)" d="M 441.467532 378 
L 441.467532 51.84 
" style="fill:none;stroke:#ffffff;stroke-linecap:round;"/>
     </g>
     <g id="text_5">
      <!-- 9.2 -->
      <g style="fill:#262626;" transform="translate(433.217532 395.0625)scale(0.11 -0.11)">
       <defs>
        <path d="M 4.6875 3.90625 
Q 5.078125 9.765625 10.15625 14.453125 
Q 15.234375 19.140625 23.046875 29.09375 
Q 30.859375 39.0625 33.203125 44.53125 
Q 35.546875 50 34.953125 53.90625 
Q 34.375 57.8125 31.25 60.34375 
Q 28.125 62.890625 24.015625 62.5 
Q 19.921875 62.109375 16.203125 59.375 
Q 12.5 56.640625 10.546875 51.171875 
L 3.125 52.34375 
Q 6.25 61.328125 11.125 65.421875 
Q 16.015625 69.53125 22.65625 69.921875 
Q 26.5625 70.3125 29.6875 69.71875 
Q 32.8125 69.140625 36.125 66.984375 
Q 39.453125 64.84375 41.59375 60.546875 
Q 43.75 56.25 43.15625 50.1875 
Q 42.578125 44.140625 37.109375 35.734375 
Q 31.640625 27.34375 16.015625 9.375 
L 44.140625 9.375 
L 44.140625 2.34375 
L 4.6875 2.34375 
z
" id="SimHei-50"/>
       </defs>
       <use xlink:href="#SimHei-57"/>
       <use x="50" xlink:href="#SimHei-46"/>
       <use x="100" xlink:href="#SimHei-50"/>
      </g>
     </g>
    </g>
    <g id="xtick_6">
     <g id="line2d_6">
      <path clip-path="url(#p4997a5f717)" d="M 513.935065 378 
L 513.935065 51.84 
" style="fill:none;stroke:#ffffff;stroke-linecap:round;"/>
     </g>
     <g id="text_6">
      <!-- 9.4 -->
      <g style="fill:#262626;" transform="translate(505.685065 395.0625)scale(0.11 -0.11)">
       <use xlink:href="#SimHei-57"/>
       <use x="50" xlink:href="#SimHei-46"/>
       <use x="100" xlink:href="#SimHei-52"/>
      </g>
     </g>
    </g>
    <g id="xtick_7">
     <g id="line2d_7">
      <path clip-path="url(#p4997a5f717)" d="M 586.402597 378 
L 586.402597 51.84 
" style="fill:none;stroke:#ffffff;stroke-linecap:round;"/>
     </g>
     <g id="text_7">
      <!-- 9.6 -->
      <g style="fill:#262626;" transform="translate(578.152597 395.0625)scale(0.11 -0.11)">
       <use xlink:href="#SimHei-57"/>
       <use x="50" xlink:href="#SimHei-46"/>
       <use x="100" xlink:href="#SimHei-54"/>
      </g>
     </g>
    </g>
    <g id="text_8">
     <!-- 分数 -->
     <g style="fill:#262626;" transform="translate(357 409.859375)scale(0.12 -0.12)">
      <defs>
       <path d="M 15.625 -10.15625 
Q 12.890625 -5.859375 8.984375 -3.515625 
Q 15.234375 -1.171875 20.3125 2.140625 
Q 25.390625 5.46875 29.296875 10.34375 
Q 33.203125 15.234375 35.15625 21.09375 
Q 37.109375 26.953125 37.890625 35.546875 
Q 28.90625 35.546875 23.4375 35.15625 
L 23.4375 43.359375 
Q 29.6875 42.96875 39.453125 42.96875 
L 78.515625 42.96875 
Q 77.734375 37.109375 77.34375 32.8125 
L 74.21875 3.90625 
Q 73.4375 -3.125 67.96875 -5.46875 
Q 62.5 -7.8125 55.859375 -8.203125 
Q 55.46875 -4.296875 51.953125 0.78125 
Q 60.15625 0.390625 63.078125 1.359375 
Q 66.015625 2.34375 66.796875 8.203125 
L 69.53125 35.546875 
L 46.09375 35.546875 
Q 44.921875 25.390625 42.765625 18.546875 
Q 40.625 11.71875 36.71875 6.640625 
Q 32.8125 1.5625 27.34375 -2.734375 
Q 21.875 -7.03125 15.625 -10.15625 
z
M 61.71875 80.859375 
Q 64.453125 72.65625 72.84375 62.109375 
Q 81.25 51.5625 96.484375 43.75 
Q 93.359375 41.015625 90.234375 35.546875 
Q 83.203125 40.625 77.921875 45.109375 
Q 72.65625 49.609375 69.140625 53.515625 
Q 65.625 57.421875 61.328125 64.640625 
Q 57.03125 71.875 54.296875 78.125 
Q 58.59375 79.296875 61.71875 80.859375 
z
M 42.1875 75.390625 
Q 38.671875 69.140625 36.328125 64.453125 
Q 33.984375 59.765625 31.640625 56.046875 
Q 29.296875 52.34375 24.609375 46.09375 
Q 19.921875 39.84375 13.28125 33.203125 
Q 9.765625 36.71875 6.25 38.671875 
Q 14.0625 45.703125 18.546875 51.5625 
Q 23.046875 57.421875 27.140625 64.25 
Q 31.25 71.09375 34.375 79.296875 
Q 37.5 76.953125 42.1875 75.390625 
z
" id="SimHei-20998"/>
       <path d="M 70.703125 76.953125 
Q 69.921875 75 68.75 71.671875 
Q 67.578125 68.359375 65.234375 59.765625 
L 83.203125 59.765625 
Q 87.109375 59.765625 92.578125 60.15625 
L 92.578125 53.125 
Q 88.28125 53.515625 85.9375 53.515625 
Q 85.9375 47.265625 83.78125 33.78125 
Q 81.640625 20.3125 76.171875 10.546875 
Q 80.078125 5.859375 84.953125 2.140625 
Q 89.84375 -1.5625 94.140625 -3.125 
Q 89.453125 -6.640625 87.890625 -9.765625 
Q 83.203125 -7.03125 79.296875 -3.515625 
Q 75.390625 0 71.484375 5.078125 
Q 67.1875 0.390625 62.296875 -2.921875 
Q 57.421875 -6.25 50 -10.15625 
Q 48.046875 -6.640625 44.53125 -4.6875 
Q 50.390625 -2.34375 57.03125 1.953125 
Q 63.671875 6.25 67.1875 10.546875 
Q 64.453125 16.015625 61.90625 22.265625 
Q 59.375 28.515625 57.421875 38.671875 
Q 56.25 35.546875 53.515625 30.46875 
Q 50.78125 32.03125 46.875 33.59375 
Q 53.125 44.53125 57.03125 57.421875 
Q 60.9375 70.3125 62.109375 79.6875 
Q 66.796875 77.734375 70.703125 76.953125 
z
M 32.8125 35.15625 
Q 31.25 33.59375 29.296875 30.078125 
L 50.78125 30.078125 
Q 48.4375 20.3125 42.578125 10.546875 
Q 48.828125 8.203125 52.34375 6.25 
Q 50.390625 3.515625 48.828125 0.390625 
Q 45.3125 2.734375 38.28125 5.078125 
Q 30.46875 -3.515625 11.328125 -10.15625 
Q 9.375 -5.859375 6.25 -4.296875 
Q 24.609375 0 31.25 7.421875 
Q 20.3125 10.15625 13.28125 12.109375 
Q 15.625 15.625 19.53125 23.828125 
Q 15.625 23.828125 6.640625 23.4375 
L 6.640625 30.46875 
Q 14.0625 30.078125 21.875 30.078125 
Q 23.4375 33.59375 24.21875 37.890625 
Q 28.515625 36.328125 32.8125 35.15625 
z
M 27.734375 61.71875 
Q 27.734375 71.09375 27.34375 79.6875 
L 35.15625 79.6875 
Q 34.765625 71.484375 34.765625 61.71875 
Q 48.046875 61.71875 53.515625 62.109375 
L 53.515625 55.078125 
Q 48.046875 55.46875 34.765625 55.46875 
Q 34.765625 44.140625 35.15625 37.890625 
L 27.34375 37.890625 
Q 27.734375 43.359375 27.734375 51.5625 
Q 25.78125 48.4375 20.3125 43.546875 
Q 14.84375 38.671875 10.15625 35.9375 
Q 8.203125 39.453125 4.296875 41.015625 
Q 7.8125 42.1875 13.671875 46.484375 
Q 19.53125 50.78125 22.65625 55.46875 
Q 14.84375 55.46875 7.8125 55.078125 
L 7.8125 62.109375 
Q 14.453125 61.71875 27.734375 61.71875 
z
M 62.109375 49.609375 
Q 65.625 26.5625 71.875 17.578125 
Q 75.78125 26.5625 77.140625 35.734375 
Q 78.515625 44.921875 78.90625 53.515625 
L 63.671875 53.515625 
L 62.109375 49.609375 
z
M 22.65625 15.625 
Q 27.34375 14.453125 35.546875 12.5 
Q 38.671875 16.40625 41.40625 23.828125 
L 26.953125 23.828125 
Q 25 19.921875 22.65625 15.625 
z
M 51.953125 75.390625 
Q 50 72.265625 48.828125 69.53125 
Q 47.65625 66.796875 45.703125 62.890625 
Q 42.578125 64.453125 39.453125 65.234375 
Q 42.578125 70.3125 45.3125 78.125 
Q 49.21875 76.171875 51.953125 75.390625 
z
M 40.234375 52.734375 
Q 45.3125 47.65625 50 42.578125 
Q 47.65625 40.625 44.921875 37.890625 
Q 39.453125 44.53125 35.9375 48.4375 
Q 38.28125 50.390625 40.234375 52.734375 
z
M 14.453125 78.125 
Q 19.921875 72.65625 23.4375 67.1875 
L 17.578125 63.671875 
Q 14.84375 69.140625 9.375 73.828125 
Q 12.890625 76.171875 14.453125 78.125 
z
" id="SimHei-25968"/>
      </defs>
      <use xlink:href="#SimHei-20998"/>
      <use x="100" xlink:href="#SimHei-25968"/>
     </g>
    </g>
   </g>
   <g id="matplotlib.axis_2">
    <g id="ytick_1">
     <g id="line2d_8">
      <path clip-path="url(#p4997a5f717)" d="M 90 378 
L 648 378 
" style="fill:none;stroke:#ffffff;stroke-linecap:round;"/>
     </g>
     <g id="text_9">
      <!-- 0 -->
      <g style="fill:#262626;" transform="translate(75 381.78125)scale(0.11 -0.11)">
       <use xlink:href="#SimHei-48"/>
      </g>
     </g>
    </g>
    <g id="ytick_2">
     <g id="line2d_9">
      <path clip-path="url(#p4997a5f717)" d="M 90 339.171429 
L 648 339.171429 
" style="fill:none;stroke:#ffffff;stroke-linecap:round;"/>
     </g>
     <g id="text_10">
      <!-- 10 -->
      <g style="fill:#262626;" transform="translate(69.5 342.952679)scale(0.11 -0.11)">
       <defs>
        <path d="M 21.875 56.25 
Q 16.796875 51.171875 8.984375 46.484375 
L 8.984375 53.90625 
Q 18.75 60.546875 25 69.53125 
L 29.6875 69.53125 
L 29.6875 2.34375 
L 21.875 2.34375 
z
" id="SimHei-49"/>
       </defs>
       <use xlink:href="#SimHei-49"/>
       <use x="50" xlink:href="#SimHei-48"/>
      </g>
     </g>
    </g>
    <g id="ytick_3">
     <g id="line2d_10">
      <path clip-path="url(#p4997a5f717)" d="M 90 300.342857 
L 648 300.342857 
" style="fill:none;stroke:#ffffff;stroke-linecap:round;"/>
     </g>
     <g id="text_11">
      <!-- 20 -->
      <g style="fill:#262626;" transform="translate(69.5 304.124107)scale(0.11 -0.11)">
       <use xlink:href="#SimHei-50"/>
       <use x="50" xlink:href="#SimHei-48"/>
      </g>
     </g>
    </g>
    <g id="ytick_4">
     <g id="line2d_11">
      <path clip-path="url(#p4997a5f717)" d="M 90 261.514286 
L 648 261.514286 
" style="fill:none;stroke:#ffffff;stroke-linecap:round;"/>
     </g>
     <g id="text_12">
      <!-- 30 -->
      <g style="fill:#262626;" transform="translate(69.5 265.295536)scale(0.11 -0.11)">
       <defs>
        <path d="M 3.90625 19.140625 
L 10.9375 20.3125 
Q 12.5 15.234375 16.015625 11.90625 
Q 19.53125 8.59375 24.796875 8.78125 
Q 30.078125 8.984375 33.203125 13.078125 
Q 36.328125 17.1875 35.9375 22.453125 
Q 35.546875 27.734375 31.828125 30.65625 
Q 28.125 33.59375 19.921875 34.765625 
L 19.921875 39.84375 
Q 28.125 40.625 31.828125 44.140625 
Q 35.546875 47.65625 35.15625 53.3125 
Q 34.765625 58.984375 30.078125 61.515625 
Q 25.390625 64.0625 20.109375 62.109375 
Q 14.84375 60.15625 11.71875 51.171875 
L 4.6875 52.34375 
Q 7.03125 59.375 11.125 64.0625 
Q 15.234375 68.75 22.265625 69.53125 
Q 29.296875 70.3125 34.5625 67.765625 
Q 39.84375 65.234375 41.984375 59.953125 
Q 44.140625 54.6875 42.578125 48.4375 
Q 41.015625 42.1875 33.59375 37.5 
Q 39.0625 35.15625 41.984375 30.46875 
Q 44.921875 25.78125 43.9375 18.15625 
Q 42.96875 10.546875 37.109375 5.859375 
Q 31.25 1.171875 23.828125 1.359375 
Q 16.40625 1.5625 10.9375 6.046875 
Q 5.46875 10.546875 3.90625 19.140625 
z
" id="SimHei-51"/>
       </defs>
       <use xlink:href="#SimHei-51"/>
       <use x="50" xlink:href="#SimHei-48"/>
      </g>
     </g>
    </g>
    <g id="ytick_5">
     <g id="line2d_12">
      <path clip-path="url(#p4997a5f717)" d="M 90 222.685714 
L 648 222.685714 
" style="fill:none;stroke:#ffffff;stroke-linecap:round;"/>
     </g>
     <g id="text_13">
      <!-- 40 -->
      <g style="fill:#262626;" transform="translate(69.5 226.466964)scale(0.11 -0.11)">
       <use xlink:href="#SimHei-52"/>
       <use x="50" xlink:href="#SimHei-48"/>
      </g>
     </g>
    </g>
    <g id="ytick_6">
     <g id="line2d_13">
      <path clip-path="url(#p4997a5f717)" d="M 90 183.857143 
L 648 183.857143 
" style="fill:none;stroke:#ffffff;stroke-linecap:round;"/>
     </g>
     <g id="text_14">
      <!-- 50 -->
      <g style="fill:#262626;" transform="translate(69.5 187.638393)scale(0.11 -0.11)">
       <defs>
        <path d="M 8.59375 20.703125 
Q 11.328125 10.15625 17.96875 8.984375 
Q 24.609375 7.8125 28.703125 10.34375 
Q 32.8125 12.890625 34.5625 16.984375 
Q 36.328125 21.09375 36.125 26.171875 
Q 35.9375 31.25 33.390625 34.765625 
Q 30.859375 38.28125 26.953125 39.453125 
Q 23.046875 40.625 18.15625 39.453125 
Q 13.28125 38.28125 10.15625 33.984375 
L 3.515625 34.765625 
Q 4.296875 37.109375 10.9375 68.359375 
L 41.796875 68.359375 
L 41.796875 61.328125 
L 16.796875 61.328125 
Q 14.84375 50.78125 12.890625 44.53125 
Q 18.75 47.265625 23.828125 47.0625 
Q 28.90625 46.875 33.59375 44.71875 
Q 38.28125 42.578125 40.421875 38.859375 
Q 42.578125 35.15625 43.546875 31.4375 
Q 44.53125 27.734375 44.328125 23.4375 
Q 44.140625 19.140625 42.578125 14.640625 
Q 41.015625 10.15625 37.890625 7.21875 
Q 34.765625 4.296875 30.265625 2.53125 
Q 25.78125 0.78125 19.921875 1.171875 
Q 14.0625 1.5625 8.78125 5.46875 
Q 3.515625 9.375 1.5625 18.75 
z
" id="SimHei-53"/>
       </defs>
       <use xlink:href="#SimHei-53"/>
       <use x="50" xlink:href="#SimHei-48"/>
      </g>
     </g>
    </g>
    <g id="ytick_7">
     <g id="line2d_14">
      <path clip-path="url(#p4997a5f717)" d="M 90 145.028571 
L 648 145.028571 
" style="fill:none;stroke:#ffffff;stroke-linecap:round;"/>
     </g>
     <g id="text_15">
      <!-- 60 -->
      <g style="fill:#262626;" transform="translate(69.5 148.809821)scale(0.11 -0.11)">
       <use xlink:href="#SimHei-54"/>
       <use x="50" xlink:href="#SimHei-48"/>
      </g>
     </g>
    </g>
    <g id="ytick_8">
     <g id="line2d_15">
      <path clip-path="url(#p4997a5f717)" d="M 90 106.2 
L 648 106.2 
" style="fill:none;stroke:#ffffff;stroke-linecap:round;"/>
     </g>
     <g id="text_16">
      <!-- 70 -->
      <g style="fill:#262626;" transform="translate(69.5 109.98125)scale(0.11 -0.11)">
       <defs>
        <path d="M 13.28125 2.34375 
Q 20.3125 32.03125 37.890625 61.328125 
L 4.296875 61.328125 
L 4.296875 68.359375 
L 46.09375 68.359375 
L 46.09375 61.71875 
Q 27.734375 32.03125 21.875 2.34375 
L 13.28125 2.34375 
z
" id="SimHei-55"/>
       </defs>
       <use xlink:href="#SimHei-55"/>
       <use x="50" xlink:href="#SimHei-48"/>
      </g>
     </g>
    </g>
    <g id="ytick_9">
     <g id="line2d_16">
      <path clip-path="url(#p4997a5f717)" d="M 90 67.371429 
L 648 67.371429 
" style="fill:none;stroke:#ffffff;stroke-linecap:round;"/>
     </g>
     <g id="text_17">
      <!-- 80 -->
      <g style="fill:#262626;" transform="translate(69.5 71.152679)scale(0.11 -0.11)">
       <use xlink:href="#SimHei-56"/>
       <use x="50" xlink:href="#SimHei-48"/>
      </g>
     </g>
    </g>
    <g id="text_18">
     <!-- 影片数量 -->
     <g style="fill:#262626;" transform="translate(64 238.92)rotate(-90)scale(0.12 -0.12)">
      <defs>
       <path d="M 55.46875 78.515625 
Q 54.6875 72.265625 54.875 65.421875 
Q 55.078125 58.59375 55.46875 51.953125 
L 12.109375 51.953125 
Q 12.5 58.59375 12.296875 65.421875 
Q 12.109375 72.265625 12.109375 78.515625 
L 55.46875 78.515625 
z
M 22.65625 -1.5625 
Q 32.03125 -1.171875 30.859375 3.125 
L 30.859375 17.1875 
L 12.109375 17.1875 
Q 12.5 21.484375 12.296875 25.78125 
Q 12.109375 30.078125 12.109375 34.765625 
L 55.46875 34.765625 
Q 55.078125 30.078125 54.875 25.78125 
Q 54.6875 21.484375 55.46875 17.1875 
L 38.671875 17.1875 
L 38.671875 2.734375 
Q 39.0625 -3.90625 35.9375 -5.859375 
Q 32.8125 -7.8125 25.390625 -9.375 
Q 24.609375 -5.078125 22.65625 -1.5625 
z
M 37.109375 50.78125 
Q 37.5 48.046875 37.890625 44.921875 
L 49.609375 44.921875 
Q 56.25 44.921875 63.28125 45.3125 
L 63.28125 38.671875 
Q 56.25 39.0625 49.609375 39.0625 
L 18.75 39.0625 
Q 10.9375 39.0625 4.296875 38.671875 
L 4.296875 45.3125 
Q 10.9375 44.921875 18.75 44.921875 
L 29.6875 44.921875 
Q 29.296875 47.265625 28.90625 50 
Q 32.8125 50.78125 37.109375 50.78125 
z
M 96.09375 21.09375 
Q 88.671875 12.109375 78.125 3.515625 
Q 67.578125 -5.078125 58.203125 -10.15625 
Q 55.859375 -6.25 53.125 -3.90625 
Q 62.109375 0.390625 71.875 7.8125 
Q 81.640625 15.234375 90.234375 26.953125 
Q 92.96875 23.828125 96.09375 21.09375 
z
M 92.578125 48.828125 
Q 87.890625 44.53125 81.4375 36.90625 
Q 75 29.296875 65.625 22.265625 
Q 62.890625 25.390625 59.375 26.953125 
Q 68.359375 32.03125 74.796875 39.453125 
Q 81.25 46.875 86.328125 54.6875 
Q 88.671875 51.953125 92.578125 48.828125 
z
M 89.453125 75.390625 
Q 83.203125 71.09375 78.703125 65.03125 
Q 74.21875 58.984375 65.234375 51.171875 
Q 62.109375 53.90625 59.375 55.46875 
Q 65.234375 59.765625 71.09375 66.203125 
Q 76.953125 72.65625 81.640625 80.859375 
Q 84.765625 78.125 89.453125 75.390625 
z
M 48.046875 23.046875 
L 48.046875 28.90625 
L 19.53125 28.90625 
L 19.53125 23.046875 
z
M 48.046875 57.8125 
L 48.046875 62.5 
L 19.53125 62.5 
L 19.53125 57.8125 
z
M 48.046875 68.359375 
L 48.046875 73.046875 
L 19.53125 73.046875 
L 19.53125 68.359375 
z
M 23.4375 7.8125 
Q 16.796875 1.171875 8.984375 -5.078125 
Q 7.421875 -2.734375 4.296875 -0.390625 
Q 10.9375 3.90625 17.578125 12.890625 
Q 20.3125 9.765625 23.4375 7.8125 
z
M 50.78125 -0.78125 
Q 47.65625 4.296875 42.96875 8.59375 
Q 45.3125 10.9375 48.046875 13.28125 
Q 53.125 8.203125 56.25 3.90625 
L 50.78125 -0.78125 
z
" id="SimHei-24433"/>
       <path d="M 29.6875 78.90625 
Q 28.90625 73.4375 28.90625 53.90625 
L 59.765625 53.90625 
Q 59.765625 75.78125 59.375 81.640625 
L 68.359375 81.640625 
Q 67.96875 75.78125 67.96875 53.90625 
Q 82.8125 53.90625 91.40625 54.296875 
L 91.40625 47.265625 
Q 82.8125 47.65625 78.90625 47.65625 
L 28.90625 47.65625 
Q 28.90625 40.234375 28.515625 32.03125 
L 76.171875 32.03125 
Q 75.78125 23.046875 75.78125 11.71875 
Q 75.78125 0.390625 76.171875 -9.375 
L 67.578125 -9.375 
Q 67.96875 0 67.96875 25.390625 
L 27.734375 25.390625 
Q 26.5625 17.1875 22.65625 7.03125 
Q 18.75 -3.125 13.671875 -9.375 
Q 11.71875 -6.25 5.46875 -4.6875 
Q 12.109375 3.125 15.421875 12.109375 
Q 18.75 21.09375 19.921875 31.4375 
Q 21.09375 41.796875 21.09375 53.515625 
Q 21.09375 65.234375 20.703125 79.6875 
Q 24.609375 79.296875 29.6875 78.90625 
z
" id="SimHei-29255"/>
       <path d="M 82.03125 39.0625 
Q 81.640625 34.375 81.640625 26.5625 
Q 81.640625 19.140625 82.03125 14.84375 
L 53.515625 14.84375 
L 53.515625 9.765625 
L 71.484375 9.765625 
Q 78.125 9.765625 83.984375 10.15625 
L 83.984375 4.296875 
Q 78.515625 4.6875 71.484375 4.6875 
L 53.515625 4.6875 
L 53.515625 -1.171875 
L 80.078125 -1.171875 
Q 86.328125 -1.171875 92.578125 -0.78125 
L 92.578125 -6.640625 
Q 86.328125 -6.25 80.078125 -6.25 
L 19.921875 -6.25 
Q 14.0625 -6.25 7.421875 -6.640625 
L 7.421875 -0.78125 
Q 14.453125 -0.78125 19.921875 -1.171875 
L 46.484375 -1.171875 
L 46.484375 4.6875 
L 26.953125 4.6875 
Q 21.09375 4.6875 15.234375 3.90625 
L 15.234375 10.15625 
Q 21.484375 9.765625 26.953125 9.765625 
L 46.484375 9.765625 
L 46.484375 14.84375 
L 17.96875 14.84375 
Q 18.359375 21.484375 18.359375 27.734375 
Q 18.359375 33.984375 17.96875 39.0625 
L 82.03125 39.0625 
z
M 81.25 77.34375 
Q 80.859375 71.484375 80.859375 66.40625 
Q 80.859375 61.328125 81.25 53.125 
L 18.75 53.125 
Q 19.140625 61.328125 19.140625 66.40625 
Q 19.140625 71.484375 18.75 77.34375 
L 81.25 77.34375 
z
M 76.5625 48.4375 
Q 85.9375 48.828125 93.75 49.21875 
L 93.75 42.96875 
Q 85.9375 43.359375 76.953125 43.359375 
L 25.78125 43.359375 
Q 15.234375 43.359375 5.078125 42.96875 
L 5.078125 49.21875 
Q 15.234375 48.828125 25.78125 48.4375 
z
M 73.828125 57.8125 
L 73.828125 62.890625 
L 26.171875 62.890625 
L 26.171875 57.8125 
z
M 73.828125 67.96875 
L 73.828125 72.65625 
L 26.171875 72.65625 
L 26.171875 67.96875 
z
M 74.21875 29.296875 
L 74.21875 33.984375 
L 53.515625 33.984375 
L 53.515625 29.296875 
z
M 46.484375 29.296875 
L 46.484375 33.984375 
L 25.78125 33.984375 
L 25.78125 29.296875 
z
M 46.484375 19.921875 
L 46.484375 24.21875 
L 25.78125 24.21875 
L 25.78125 19.921875 
z
M 74.21875 19.921875 
L 74.21875 24.21875 
L 53.515625 24.21875 
L 53.515625 19.921875 
z
" id="SimHei-37327"/>
      </defs>
      <use xlink:href="#SimHei-24433"/>
      <use x="100" xlink:href="#SimHei-29255"/>
      <use x="200" xlink:href="#SimHei-25968"/>
      <use x="300" xlink:href="#SimHei-37327"/>
     </g>
    </g>
   </g>
   <g id="patch_3">
    <path clip-path="url(#p4997a5f717)" d="M 115.363636 378 
L 178.772727 378 
L 178.772727 362.468571 
L 115.363636 362.468571 
z
" style="fill:#c7000b;opacity:0.7;stroke:#000000;stroke-linejoin:miter;"/>
   </g>
   <g id="patch_4">
    <path clip-path="url(#p4997a5f717)" d="M 178.772727 378 
L 242.181818 378 
L 242.181818 253.748571 
L 178.772727 253.748571 
z
" style="fill:#c7000b;opacity:0.7;stroke:#000000;stroke-linejoin:miter;"/>
   </g>
   <g id="patch_5">
    <path clip-path="url(#p4997a5f717)" d="M 242.181818 378 
L 305.590909 378 
L 305.590909 67.371429 
L 242.181818 67.371429 
z
" style="fill:#c7000b;opacity:0.7;stroke:#000000;stroke-linejoin:miter;"/>
   </g>
   <g id="patch_6">
    <path clip-path="url(#p4997a5f717)" d="M 305.590909 378 
L 369 378 
L 369 226.568571 
L 305.590909 226.568571 
z
" style="fill:#c7000b;opacity:0.7;stroke:#000000;stroke-linejoin:miter;"/>
   </g>
   <g id="patch_7">
    <path clip-path="url(#p4997a5f717)" d="M 369 378 
L 432.409091 378 
L 432.409091 211.037143 
L 369 211.037143 
z
" style="fill:#c7000b;opacity:0.7;stroke:#000000;stroke-linejoin:miter;"/>
   </g>
   <g id="patch_8">
    <path clip-path="url(#p4997a5f717)" d="M 432.409091 378 
L 495.818182 378 
L 495.818182 234.334286 
L 432.409091 234.334286 
z
" style="fill:#c7000b;opacity:0.7;stroke:#000000;stroke-linejoin:miter;"/>
   </g>
   <g id="patch_9">
    <path clip-path="url(#p4997a5f717)" d="M 495.818182 378 
L 559.227273 378 
L 559.227273 335.288571 
L 495.818182 335.288571 
z
" style="fill:#c7000b;opacity:0.7;stroke:#000000;stroke-linejoin:miter;"/>
   </g>
   <g id="patch_10">
    <path clip-path="url(#p4997a5f717)" d="M 559.227273 378 
L 622.636364 378 
L 622.636364 362.468571 
L 559.227273 362.468571 
z
" style="fill:#c7000b;opacity:0.7;stroke:#000000;stroke-linejoin:miter;"/>
   </g>
   <g id="patch_11">
    <path d="M 90 378 
L 90 51.84 
" style="fill:none;stroke:#ffffff;stroke-linecap:square;stroke-linejoin:miter;stroke-width:1.25;"/>
   </g>
   <g id="patch_12">
    <path d="M 648 378 
L 648 51.84 
" style="fill:none;stroke:#ffffff;stroke-linecap:square;stroke-linejoin:miter;stroke-width:1.25;"/>
   </g>
   <g id="patch_13">
    <path d="M 90 378 
L 648 378 
" style="fill:none;stroke:#ffffff;stroke-linecap:square;stroke-linejoin:miter;stroke-width:1.25;"/>
   </g>
   <g id="patch_14">
    <path d="M 90 51.84 
L 648 51.84 
" style="fill:none;stroke:#ffffff;stroke-linecap:square;stroke-linejoin:miter;stroke-width:1.25;"/>
   </g>
   <g id="text_19">
    <!-- 豆瓣电影Top250评分分布图 -->
    <g style="fill:#262626;" transform="translate(297 45.84)scale(0.12 -0.12)">
     <defs>
      <path d="M 80.46875 59.765625 
Q 80.078125 51.171875 80.078125 43.359375 
Q 80.078125 35.9375 80.46875 27.34375 
L 19.53125 27.34375 
Q 19.921875 35.546875 19.921875 43.359375 
Q 19.921875 51.171875 19.53125 59.765625 
L 80.46875 59.765625 
z
M 72.265625 33.984375 
L 72.265625 52.734375 
L 27.734375 52.734375 
L 27.734375 33.984375 
z
M 75.78125 21.484375 
Q 72.265625 16.40625 63.671875 1.171875 
L 79.6875 1.171875 
Q 85.546875 1.171875 94.140625 1.5625 
L 94.140625 -5.859375 
Q 85.546875 -5.46875 79.6875 -5.46875 
L 20.3125 -5.46875 
Q 14.0625 -5.46875 5.46875 -5.859375 
L 5.46875 1.5625 
Q 14.0625 1.171875 20.3125 1.171875 
L 55.078125 1.171875 
Q 58.203125 6.640625 61.125 12.296875 
Q 64.0625 17.96875 66.796875 26.171875 
Q 70.3125 22.65625 75.78125 21.484375 
z
M 75.78125 76.171875 
Q 79.296875 76.171875 89.453125 76.5625 
L 89.453125 69.140625 
Q 79.296875 69.53125 75.78125 69.53125 
L 25.78125 69.53125 
Q 20.703125 69.53125 11.71875 69.140625 
L 11.71875 76.5625 
Q 20.703125 76.171875 25.390625 76.171875 
z
M 30.859375 25 
Q 38.28125 14.453125 41.796875 8.59375 
Q 37.5 6.25 34.375 3.515625 
Q 29.296875 13.671875 24.21875 19.921875 
Q 28.125 21.875 30.859375 25 
z
" id="SimHei-35910"/>
      <path d="M 64.84375 69.921875 
Q 61.328125 69.53125 60.15625 69.140625 
L 60.15625 51.171875 
Q 60.15625 42.96875 60.9375 33.59375 
Q 61.71875 25.390625 64.84375 15.421875 
Q 67.96875 5.46875 73.4375 -1.171875 
Q 70.3125 -2.34375 67.1875 -5.078125 
Q 62.890625 2.734375 60.34375 10.546875 
Q 57.8125 18.359375 57.03125 25 
Q 55.859375 32.8125 55.46875 42.96875 
Q 55.078125 53.125 55.078125 67.96875 
L 50.390625 67.1875 
L 49.609375 3.90625 
Q 52.34375 5.078125 53.515625 5.859375 
Q 52.734375 7.8125 51.5625 10.9375 
Q 53.125 11.71875 55.859375 12.890625 
Q 59.375 3.90625 61.328125 -1.171875 
Q 58.984375 -2.34375 56.640625 -3.90625 
L 55.078125 0.78125 
Q 51.5625 -0.78125 49.40625 -1.953125 
Q 47.265625 -3.125 44.53125 -5.078125 
Q 42.578125 -1.5625 41.015625 0.390625 
Q 44.921875 2.34375 44.921875 7.03125 
L 45.703125 66.40625 
Q 44.140625 66.40625 41.40625 66.015625 
L 41.40625 46.484375 
Q 41.40625 37.5 41.015625 26.5625 
Q 40.625 18.75 38.46875 10.15625 
Q 36.328125 1.5625 31.25 -7.421875 
Q 28.515625 -4.6875 25.390625 -3.515625 
Q 30.859375 3.515625 33.203125 12.5 
Q 35.546875 21.484375 35.9375 31.25 
L 35.9375 52.734375 
Q 35.9375 63.671875 35.546875 70.3125 
Q 40.234375 69.921875 46.875 71.484375 
Q 53.515625 73.046875 60.9375 76.171875 
Q 62.109375 73.4375 64.84375 69.921875 
z
M 91.40625 55.859375 
Q 89.84375 54.296875 87.6875 49.21875 
Q 85.546875 44.140625 83.984375 40.234375 
Q 88.671875 40.234375 93.75 40.625 
L 93.75 34.765625 
Q 87.5 35.15625 82.421875 35.15625 
L 82.421875 21.484375 
Q 89.0625 21.484375 93.75 21.875 
L 93.75 16.015625 
Q 89.0625 16.40625 82.421875 16.40625 
L 82.421875 2.34375 
Q 82.421875 -2.734375 82.8125 -9.765625 
L 75.78125 -9.765625 
Q 76.171875 -2.734375 76.171875 2.734375 
L 76.171875 16.40625 
Q 71.09375 16.40625 67.578125 16.015625 
L 67.578125 21.875 
Q 68.75 21.484375 76.171875 21.484375 
L 76.171875 35.15625 
Q 69.53125 35.15625 63.28125 34.765625 
L 63.28125 40.625 
Q 69.140625 40.234375 78.125 40.234375 
Q 79.6875 44.53125 81.046875 48.625 
Q 82.421875 52.734375 83.59375 58.984375 
Q 85.9375 57.421875 91.40625 55.859375 
z
M 33.203125 57.03125 
Q 32.03125 54.296875 30.265625 50.390625 
Q 28.515625 46.484375 25.78125 40.234375 
Q 31.25 40.234375 33.59375 40.625 
L 33.59375 34.765625 
Q 28.515625 35.15625 22.65625 35.15625 
L 22.65625 23.4375 
Q 27.734375 23.4375 32.421875 23.828125 
L 32.421875 17.96875 
Q 26.953125 18.359375 22.265625 18.359375 
Q 21.875 10.15625 19.328125 3.90625 
Q 16.796875 -2.34375 11.328125 -10.15625 
Q 8.984375 -7.8125 5.078125 -6.640625 
Q 10.546875 -1.171875 13.28125 5.46875 
Q 16.015625 12.109375 16.40625 18.359375 
Q 11.71875 18.359375 5.859375 17.96875 
L 5.859375 23.828125 
Q 11.328125 23.4375 16.796875 23.4375 
L 16.796875 35.15625 
Q 9.765625 35.15625 5.46875 34.765625 
L 5.46875 40.625 
Q 10.546875 40.234375 14.84375 40.234375 
L 19.921875 40.234375 
Q 22.265625 45.703125 23.828125 50.390625 
Q 25.390625 55.078125 26.171875 59.375 
Q 30.078125 57.421875 33.203125 57.03125 
z
M 83.203125 65.234375 
Q 88.28125 65.234375 94.53125 65.625 
L 94.53125 59.765625 
Q 91.796875 60.15625 83.203125 60.15625 
L 71.875 60.15625 
Q 67.1875 60.15625 63.28125 59.765625 
L 63.28125 65.625 
Q 68.359375 65.234375 73.046875 65.234375 
z
M 23.046875 66.796875 
Q 28.125 66.796875 33.59375 67.1875 
L 33.59375 61.328125 
Q 30.46875 61.71875 23.046875 61.71875 
L 14.453125 61.71875 
Q 11.328125 61.71875 5.46875 61.328125 
L 5.46875 67.1875 
Q 9.765625 66.796875 14.453125 66.796875 
z
M 76.171875 82.03125 
Q 82.03125 75.390625 85.15625 71.484375 
Q 82.03125 69.53125 79.6875 67.578125 
Q 76.5625 72.265625 71.09375 78.125 
Q 73.828125 79.6875 76.171875 82.03125 
z
M 70.3125 58.203125 
Q 75.390625 49.609375 76.953125 46.09375 
Q 74.609375 44.921875 71.484375 42.578125 
Q 68.75 49.609375 65.234375 54.6875 
L 68.359375 56.25 
z
M 11.328125 57.421875 
Q 14.0625 54.296875 18.75 46.484375 
Q 15.625 44.53125 13.28125 42.96875 
Q 10.15625 49.609375 6.640625 54.296875 
Q 9.765625 55.46875 11.328125 57.421875 
z
M 17.578125 81.640625 
Q 22.265625 75 24.21875 71.09375 
Q 22.265625 70.3125 18.359375 67.96875 
Q 17.1875 71.875 12.5 78.515625 
Q 15.625 80.078125 17.578125 81.640625 
z
" id="SimHei-29923"/>
      <path d="M 96.09375 5.078125 
Q 93.359375 -3.90625 91.015625 -6.4375 
Q 88.671875 -8.984375 83.203125 -8.984375 
L 52.734375 -8.984375 
Q 42.1875 -9.375 41.796875 1.5625 
L 41.796875 15.234375 
L 19.140625 15.234375 
L 19.140625 7.8125 
L 10.15625 7.8125 
Q 10.546875 11.71875 10.546875 34.765625 
Q 10.546875 57.8125 10.15625 64.84375 
L 41.796875 64.84375 
Q 41.796875 75.390625 41.40625 81.25 
L 50 81.25 
Q 49.609375 76.171875 49.609375 64.84375 
L 81.25 64.84375 
Q 80.859375 58.984375 80.859375 40.625 
Q 80.859375 22.65625 81.25 15.234375 
L 49.609375 15.234375 
L 49.609375 4.6875 
Q 49.609375 -2.34375 57.03125 -2.34375 
L 77.734375 -2.34375 
Q 83.984375 -2.34375 85.15625 0.390625 
Q 86.328125 3.125 87.109375 8.984375 
Q 91.015625 6.25 96.09375 5.078125 
z
M 73.046875 21.875 
L 73.046875 37.5 
L 49.609375 37.5 
L 49.609375 21.875 
z
M 41.796875 21.875 
L 41.796875 37.5 
L 19.140625 37.5 
L 19.140625 21.875 
z
M 73.046875 43.75 
L 73.046875 58.203125 
L 49.609375 58.203125 
L 49.609375 43.75 
z
M 41.796875 43.75 
L 41.796875 58.203125 
L 19.140625 58.203125 
L 19.140625 43.75 
z
" id="SimHei-30005"/>
      <path d="M 44.53125 61.328125 
L 28.90625 61.328125 
L 28.90625 1.953125 
L 19.921875 1.953125 
L 19.921875 61.328125 
L 4.296875 61.328125 
L 4.296875 68.75 
L 44.53125 68.75 
z
" id="SimHei-84"/>
      <path d="M 45.703125 23.828125 
Q 45.703125 13.671875 39.453125 7.421875 
Q 33.203125 1.171875 24.609375 1.171875 
Q 16.015625 1.171875 9.765625 7.421875 
Q 3.515625 13.671875 3.515625 23.828125 
Q 3.515625 33.984375 9.765625 40.234375 
Q 16.015625 46.484375 24.609375 46.484375 
Q 33.203125 46.484375 39.453125 40.234375 
Q 45.703125 33.984375 45.703125 23.828125 
z
M 37.109375 23.828125 
Q 37.109375 31.640625 33.203125 35.546875 
Q 29.296875 39.453125 24.609375 39.453125 
Q 19.921875 39.453125 16.015625 35.546875 
Q 12.109375 31.640625 12.109375 23.828125 
Q 12.109375 16.015625 16.015625 12.109375 
Q 19.921875 8.203125 24.609375 8.203125 
Q 29.296875 8.203125 33.203125 12.109375 
Q 37.109375 16.015625 37.109375 23.828125 
z
" id="SimHei-111"/>
      <path d="M 44.140625 23.828125 
Q 44.140625 12.5 38.671875 6.640625 
Q 33.203125 0.78125 25.390625 0.78125 
Q 21.09375 0.78125 17.96875 2.53125 
Q 14.84375 4.296875 12.5 7.8125 
L 12.5 -12.5 
L 4.6875 -12.5 
L 4.6875 45.703125 
L 12.5 45.703125 
L 12.5 39.84375 
Q 14.84375 43.359375 17.96875 44.921875 
Q 21.09375 46.484375 25.390625 46.484375 
Q 33.203125 46.484375 38.671875 40.8125 
Q 44.140625 35.15625 44.140625 23.828125 
z
M 35.546875 23.828125 
Q 35.546875 31.25 32.609375 35.34375 
Q 29.6875 39.453125 23.828125 39.453125 
Q 19.140625 39.453125 15.8125 35.34375 
Q 12.5 31.25 12.5 23.828125 
Q 12.5 16.40625 15.8125 12.109375 
Q 19.140625 7.8125 23.828125 7.8125 
Q 29.6875 7.8125 32.609375 12.109375 
Q 35.546875 16.40625 35.546875 23.828125 
z
" id="SimHei-112"/>
      <path d="M 92.1875 70.3125 
Q 84.375 70.703125 69.140625 70.703125 
L 69.140625 33.203125 
L 81.25 33.203125 
Q 89.84375 33.203125 96.484375 33.59375 
L 96.484375 26.171875 
Q 90.234375 26.5625 81.25 26.5625 
L 69.140625 26.5625 
L 69.140625 3.125 
Q 69.140625 -4.6875 69.53125 -10.546875 
L 60.9375 -10.546875 
Q 61.328125 -3.125 61.328125 3.125 
L 61.328125 26.5625 
L 48.046875 26.5625 
Q 41.015625 26.5625 34.765625 26.171875 
L 34.765625 33.59375 
Q 41.015625 33.203125 48.046875 33.203125 
L 61.328125 33.203125 
L 61.328125 70.703125 
Q 44.53125 70.703125 37.890625 70.3125 
L 37.890625 77.734375 
Q 44.53125 77.34375 51.5625 77.34375 
L 77.34375 77.34375 
Q 84.375 77.34375 92.1875 77.734375 
z
M 13.671875 3.515625 
Q 17.96875 6.25 17.96875 10.15625 
L 17.96875 44.921875 
Q 7.421875 44.921875 3.515625 44.53125 
L 3.515625 52.34375 
Q 7.421875 51.953125 12.890625 51.953125 
L 25.78125 51.953125 
Q 25.390625 44.140625 25.390625 36.328125 
L 25.390625 11.328125 
Q 29.6875 15.234375 35.546875 21.484375 
Q 37.109375 19.140625 39.84375 14.84375 
Q 32.8125 8.59375 28.3125 4.6875 
Q 23.828125 0.78125 19.53125 -3.90625 
Q 17.1875 0.390625 13.671875 3.515625 
z
M 75.390625 41.015625 
Q 81.25 53.515625 83.984375 63.28125 
Q 88.28125 62.109375 93.359375 60.15625 
Q 92.578125 59.375 89.0625 51.953125 
Q 85.546875 44.53125 82.8125 38.28125 
Q 78.90625 40.234375 75.390625 41.015625 
z
M 44.53125 62.5 
Q 51.171875 49.609375 53.90625 42.1875 
Q 49.21875 40.625 46.09375 38.671875 
Q 42.1875 51.5625 37.5 59.375 
Q 41.40625 60.546875 44.53125 62.5 
z
M 17.1875 81.640625 
Q 21.875 77.734375 30.859375 66.796875 
Q 27.34375 64.453125 24.609375 61.71875 
Q 20.3125 67.96875 11.71875 76.5625 
Q 14.0625 78.515625 17.1875 81.640625 
z
" id="SimHei-35780"/>
      <path d="M 37.109375 66.015625 
Q 41.40625 74.609375 43.359375 82.8125 
Q 48.828125 80.859375 53.125 79.296875 
Q 51.171875 77.734375 46.09375 66.015625 
L 75 66.015625 
Q 86.71875 66.015625 94.140625 66.40625 
L 94.140625 59.375 
L 42.578125 59.375 
Q 36.328125 48.4375 30.859375 41.796875 
L 51.171875 41.796875 
Q 51.171875 50.390625 50.78125 55.859375 
L 58.984375 55.859375 
Q 58.59375 50.390625 58.59375 41.796875 
L 85.9375 41.796875 
Q 85.546875 34.765625 85.546875 27.734375 
L 85.546875 11.71875 
Q 85.546875 4.296875 81.4375 2.34375 
Q 77.34375 0.390625 69.53125 -0.390625 
Q 68.75 5.078125 66.015625 8.59375 
Q 75 8.59375 76.75 9.765625 
Q 78.515625 10.9375 78.125 16.015625 
L 78.125 35.15625 
L 58.59375 35.15625 
L 58.59375 8.59375 
Q 58.59375 0.390625 58.984375 -9.375 
L 50.78125 -9.375 
Q 51.171875 0.390625 51.171875 8.59375 
L 51.171875 35.15625 
L 32.8125 35.15625 
L 32.8125 0 
L 25 0 
Q 25.390625 8.203125 25.390625 16.015625 
L 25.390625 34.765625 
Q 20.3125 28.90625 10.15625 19.921875 
Q 7.421875 23.046875 3.125 25.78125 
Q 11.71875 31.640625 19.71875 40.03125 
Q 27.734375 48.4375 33.59375 59.375 
L 24.21875 59.375 
Q 14.453125 59.375 6.25 58.984375 
L 6.25 66.40625 
Q 14.453125 66.015625 24.21875 66.015625 
z
" id="SimHei-24067"/>
      <path d="M 90.625 77.734375 
Q 90.234375 67.96875 90.234375 56.25 
L 90.234375 14.453125 
Q 90.234375 2.34375 90.625 -9.375 
L 82.8125 -9.375 
L 82.8125 -4.296875 
L 17.578125 -4.296875 
L 17.578125 -10.15625 
L 9.765625 -10.15625 
Q 10.15625 1.953125 10.15625 14.84375 
L 10.15625 56.25 
Q 10.15625 67.578125 9.765625 77.734375 
L 90.625 77.734375 
z
M 82.8125 2.34375 
L 82.8125 71.484375 
L 17.578125 71.484375 
L 17.578125 2.34375 
z
M 50.390625 66.40625 
Q 48.046875 64.0625 46.09375 61.328125 
L 72.265625 61.328125 
Q 70.703125 57.8125 67.1875 52.734375 
Q 63.671875 47.65625 56.25 40.625 
Q 67.96875 34.765625 79.296875 33.59375 
Q 76.5625 30.078125 74.609375 26.171875 
Q 60.15625 30.46875 50.390625 36.71875 
Q 39.0625 29.296875 26.171875 25.78125 
Q 25 29.296875 21.875 32.421875 
Q 34.375 34.375 44.921875 40.625 
Q 39.453125 45.703125 37.109375 49.21875 
Q 33.59375 45.3125 29.6875 41.40625 
Q 26.953125 44.53125 23.828125 46.09375 
Q 30.46875 51.5625 35.15625 58.390625 
Q 39.84375 65.234375 41.796875 69.921875 
Q 45.703125 67.96875 50.390625 66.40625 
z
M 38.28125 19.921875 
Q 55.46875 14.84375 64.0625 11.328125 
Q 62.109375 8.203125 60.15625 4.6875 
Q 44.140625 11.328125 35.546875 13.28125 
Q 37.109375 16.40625 38.28125 19.921875 
z
M 45.703125 32.03125 
Q 58.984375 26.5625 63.671875 25 
Q 61.71875 21.875 60.15625 17.96875 
Q 46.875 24.21875 42.1875 25.78125 
Q 44.140625 28.515625 45.703125 32.03125 
z
M 41.015625 53.90625 
Q 46.875 47.265625 51.171875 44.53125 
Q 56.25 48.4375 60.546875 55.078125 
L 41.796875 55.078125 
L 41.015625 53.90625 
z
" id="SimHei-22270"/>
     </defs>
     <use xlink:href="#SimHei-35910"/>
     <use x="100" xlink:href="#SimHei-29923"/>
     <use x="200" xlink:href="#SimHei-30005"/>
     <use x="300" xlink:href="#SimHei-24433"/>
     <use x="400" xlink:href="#SimHei-84"/>
     <use x="450" xlink:href="#SimHei-111"/>
     <use x="500" xlink:href="#SimHei-112"/>
     <use x="550" xlink:href="#SimHei-50"/>
     <use x="600" xlink:href="#SimHei-53"/>
     <use x="650" xlink:href="#SimHei-48"/>
     <use x="700" xlink:href="#SimHei-35780"/>
     <use x="800" xlink:href="#SimHei-20998"/>
     <use x="900" xlink:href="#SimHei-20998"/>
     <use x="1000" xlink:href="#SimHei-24067"/>
     <use x="1100" xlink:href="#SimHei-22270"/>
    </g>
   </g>
  </g>
 </g>
 <defs>
  <clipPath id="p4997a5f717">
   <rect height="326.16" width="558" x="90" y="51.84"/>
  </clipPath>
 </defs>
</svg>
